<?xml version="1.0" encoding="UTF-8"?>
<svg version="1.1" viewBox="0 0 2048 493" width="1280" height="1280" xmlns="http://www.w3.org/2000/svg">
<path transform="translate(1299,85)" d="m0 0h74l1 3-1 77h47v53l-46 1v141l1 23 2 7 1 3 10 2 20 2-2-12v-26l3-15 6-16 8-12 7-8 10-8 16-9 21-7 26-5 49-7 15-4 10-6 5-8 1-11-2-9-5-8-12-6-14-3h-25l-13 3-9 5-7 8-5 11-3 10-1 1h-72l1-13 5-21 7-16 8-12 10-11 13-9 16-8 16-5 25-4h42l26 4 23 7 17 8 12 9 7 7 7 11 5 13 2 8 2 21 1 167 2 13 3 6 5 5 5 4v10h-82l-3-8-3-15-1-8-5 3-8 8-18 13-15 8-15 5-16 3h-26l-17-3-14-5-11-6-10-8-10-10-1 26-12 1h-50l-19-3-15-6-10-7-8-9-4-9-2-9-1-9-1-182h-37l-2-1v-53h40zm282 226-11 5-13 4-35 7-17 5-9 5-7 6-5 8-3 12v11l2 9 6 10 10 7 10 3 6 1h9l16-3 16-7 11-8 6-7 6-12 4-17 1-39z" fill="#1C345F"/>
<path transform="translate(158,85)" d="m0 0h73l1 1v66l-1 13 47-1 3-2h57l17 1 1 184 2 15 4 11 6 9 10 7 9 3 7 1h14l13-2 13-6 9-7 7-9 5-10 4-17 1-9 1-170 42-1 34 1v286h-72l-1-4v-29l1-6h-2l-2 5-9 10-5 6-15 11-14 7-14 4-10 2-14 1h-11l-18-2-19-5-14-7-10-8-8-8-9-14-6-15-4-17-2-15-1-15v-132h-46l1 165 2 7 3 3 8 2 13 1h19v56l-13 1h-49l-22-4-14-6-10-8-5-6-5-11-2-8-1-10v-182h-40v-53h40v-79z" fill="#1D355F"/>
<path transform="translate(714,156)" d="m0 0h19l15 2 16 5 11 6 7 6 7 8 7 11 5 9h2l6-10 11-12 9-8 14-8 18-6 18-3h17l19 3 17 6 14 9 11 10 10 14 6 13 5 19 1 7 1 19v91l-1 102h-77l-1-190-2-12-7-14-8-7-10-4-6-1h-16l-12 3-9 5-6 5-7 11-5 17-1 10-1 177-67 1-9-1-1-186-2-14-4-10-6-8-9-6-10-3h-22l-12 3-10 6-7 8-4 8-3 14-1 37v150l-1 1h-76v-285l1-1h72v40l4-4 10-14 12-12 13-8 12-5 14-3z" fill="#1C345F"/>
<path transform="translate(1094,156)" d="m0 0h42l26 4 23 7 17 8 12 9 7 7 7 11 5 13 3 17 1 13 1 167 2 12 4 8 9 7v10h-82l-3-8-3-15-1-8-5 3-8 8-18 13-15 8-15 5-16 3h-26l-16-3-10-3-16-8-10-8-9-9-8-13-5-13-2-7-1-8v-28l3-15 6-15 8-12 8-9 12-9 16-8 18-6 26-5 49-7 15-4 10-6 5-8 1-11-2-9-5-8-12-6-14-3h-25l-13 3-9 5-4 2-2 4-6 13-3 10-1 1h-72l1-13 5-21 7-16 8-12 10-11 14-10 15-7 16-5zm67 154-16 7-15 4-34 7-15 5-10 6-7 8-4 10-1 5v13l3 10 6 9 11 7 14 3h9l16-3 16-7 11-8 6-7 6-12 4-17 1-40z" fill="#1C345F"/>
<path transform="translate(1853,156)" d="m0 0h23l1 1v75l-34 1-16 3-12 5-11 8-7 9-5 10-4 15-1 9-1 34v122l-1 1-74 1-1-1v-287h71l1 5-1 44 3-3 10-15 11-14 9-8 13-8 11-4z" fill="#1C345F"/>
<path transform="translate(1874,371)" d="m0 0h79l1 1v76l-1 1-68 1h-10l-1-1-1-15z" fill="#1D3560"/>
</svg>
