<?xml version="1.0" encoding="UTF-8"?>
<svg version="1.1" viewBox="0 0 2048 493" width="1280" height="1280" xmlns="http://www.w3.org/2000/svg">
<path transform="translate(0)" d="m0 0h2048v493h-2048z" fill="#FEFFFE"/>
<path transform="translate(1300,85)" d="m0 0h73l1 80h46l1 33v18l-1 3h-46l1 164 3 8 2 2 10 2 18 1-2-11v-26l3-16 6-15 8-12 8-9 12-9 16-8 18-6 24-5 50-7 16-4 10-6 5-8 1-5v-7l-3-10-6-7-10-5-9-2-9-1h-18l-12 2-10 4-8 7-7 14-3 11-2 1h-59l-12-1 1-13 4-19 9-20 8-11 9-10 14-10 15-7 16-5 15-3 23-2h17l22 2 20 4 16 5 16 7 14 9 9 9 7 11 6 16 2 12 1 11 1 169 2 13 4 8 9 8v9l-1 1-8 1h-71l-3-2-4-14-2-14-1-2-8 7-9 8-18 12-15 7-13 4-20 3h-10l-17-2-16-4-16-8-10-7-6-5-5-6-2-1 1 2v13l-1 11-3 1-26 1h-23l-19-2-16-4-14-7-10-9-5-8-4-13-1-8v-184h-39l-1-1v-53l39-1 1-78z" fill="#1A3360"/>
<path transform="translate(158,85)" d="m0 0h73l1 80 45-1 2-2h74l2 1 1 181 2 17 4 12 7 10 9 6 16 4h13l16-3 11-5 9-7 7-9 5-11 3-11 2-15 1-169 21-1h54l1 1v286l-1 1h-71l-1-1v-36l1-2-5 5-9 11-10 9-18 11-14 5-14 3-10 1h-20l-20-3-15-5-10-5-11-8-10-10-8-13-5-12-5-19-3-27v-135h-47l1 149 1 15 3 8 6 3 5 1 32 1v39l-1 17-2 1-26 1h-26l-17-2-16-4-14-7-10-9-6-10-3-11-1-9v-183h-39l-1-1v-52l1-1h39v-79z" fill="#1A3360"/>
<path transform="translate(712,156)" d="m0 0h24l16 3 14 5 12 7 8 8 9 13 6 10v2h2l2-5 8-11 12-12 14-9 14-6 17-4 7-1h21l17 3 19 7 11 7 12 11 10 14 6 13 5 17 2 18v187l-1 16-1 1h-75l-1-1-1-189-3-16-6-11-9-7-10-4-7-1h-12l-14 3-10 6-7 7-7 14-3 12-1 12-1 174-1 1h-73l-1-1-1-34-1-152-3-17-6-12-7-6-11-5-6-1h-19l-12 3-10 5-7 7-5 10-3 15-1 58-1 129-1 1h-74l-1-2v-273l1-12h73l1 38 12-16 7-8 12-9 15-7 16-4z" fill="#1A3360"/>
<path transform="translate(1107,155)" d="m0 0h17l22 2 20 4 16 5 18 8 12 8 9 9 7 11 6 16 2 12 1 12 1 167 2 14 4 8 9 8v9l-5 2h-75l-3-2-5-19-1-9-1-2-8 7-9 8-18 12-15 7-13 4-20 3h-10l-17-2-16-4-16-8-11-8-11-11-8-14-5-14-2-10v-30l4-18 6-14 8-11 8-9 13-9 16-8 20-6 20-4 50-7 16-4 10-6 5-8 1-5v-7l-3-10-6-7-10-5-9-2-9-1h-18l-12 2-10 4-8 7-7 14-3 10-2 2h-64l-7-1 1-14 4-17 6-15 7-12 9-11 9-8 13-8 14-6 13-4 15-3z" fill="#1A3360"/>
<path transform="translate(1868,155)" d="m0 0h7l2 2v75l-1 1h-30l-14 2-15 5-9 6-6 5-9 14-5 19-1 9-1 33-1 123-1 1h-72l-2-1v-286l1-1h70l1 1 1 46 10-15 13-16 9-8 12-7 14-5 12-2z" fill="#1A3360"/>
<path transform="translate(1581,311)" d="m0 0h2l1 9-1 28-3 16-5 12-6 8-8 7-16 8-14 4-16 1-14-3-11-7-6-9-3-12v-9l2-10 5-9 5-5 8-6 14-5 18-4 28-6 14-5z" fill="#FEFFFE"/>
<path transform="translate(1159,311)" d="m0 0h2l1 8-1 29-3 16-5 12-6 8-8 7-16 8-14 4-16 1-14-3-11-7-6-9-3-12v-9l2-10 4-8 5-6 11-7 15-5 40-8 15-5z" fill="#FEFFFE"/>
<path transform="translate(1874,371)" d="m0 0h79l1 23v27l-1 28-1 1h-76l-2-1z" fill="#1A3360"/>
</svg>
